<?xml version="1.0" encoding="UTF-8"?>
<svg version="1.1" xmlns="http://www.w3.org/2000/svg" width="365" height="90">
<path d="M0 0 C2.33333333 4.66666667 4.66666667 9.33333333 7 14 C7.33773437 13.07316406 7.67546875 12.14632812 8.0234375 11.19140625 C8.46945313 9.99386719 8.91546875 8.79632813 9.375 7.5625 C9.81585938 6.36753906 10.25671875 5.17257813 10.7109375 3.94140625 C12 1 12 1 14 0 C17.5625 -0.125 17.5625 -0.125 21 0 C22 1 22 1 22.11352539 3.50024414 C22.10828857 4.58426514 22.10305176 5.66828613 22.09765625 6.78515625 C22.09443359 7.95498047 22.09121094 9.12480469 22.08789062 10.33007812 C22.07951172 11.56177734 22.07113281 12.79347656 22.0625 14.0625 C22.05798828 15.29806641 22.05347656 16.53363281 22.04882812 17.80664062 C22.03699608 20.87114117 22.02051173 23.93554721 22 27 C19.36 27 16.72 27 14 27 C13.67 24.69 13.34 22.38 13 20 C12.01 22.31 11.02 24.62 10 27 C7.69 27 5.38 27 3 27 C2.01 24.69 1.02 22.38 0 20 C-0.33 22.31 -0.66 24.62 -1 27 C-3.33294775 27.04241723 -5.66702567 27.04092937 -8 27 C-9 26 -9 26 -9.11352539 23.59155273 C-9.10828857 22.54942627 -9.10305176 21.5072998 -9.09765625 20.43359375 C-9.09443359 19.30888672 -9.09121094 18.18417969 -9.08789062 17.02539062 C-9.07951172 15.84138672 -9.07113281 14.65738281 -9.0625 13.4375 C-9.05798828 12.24962891 -9.05347656 11.06175781 -9.04882812 9.83789062 C-9.03699675 6.89187774 -9.02051287 3.94596319 -9 1 C-6.04335481 -0.4783226 -3.25770263 -0.06032783 0 0 Z " fill="#DBF3F5" transform="translate(233,30)"/>
<path d="M0 0 C1.68319336 0.03383789 1.68319336 0.03383789 3.40039062 0.06835938 C6.16412536 0.12716224 8.92512554 0.20929599 11.6875 0.3125 C13.55608194 5.91824582 13.7174692 12.81929121 12.0390625 18.51171875 C9.43056329 23.47232622 4.69659064 27.80795468 -0.3125 30.3125 C-15.73041818 31.44973459 -15.73041818 31.44973459 -22.3125 26.3125 C-22.3125 25.3225 -22.3125 24.3325 -22.3125 23.3125 C-21.01054687 23.28671875 -19.70859375 23.2609375 -18.3671875 23.234375 C-16.64059244 23.17807299 -14.91403124 23.12072613 -13.1875 23.0625 C-12.3315625 23.04832031 -11.475625 23.03414062 -10.59375 23.01953125 C-4.92088124 22.80134399 -1.66820472 22.02623873 2.6875 18.3125 C4.73036057 14.61589516 4.96721456 11.63421262 5.6875 7.3125 C0.7375 7.6425 -4.2125 7.9725 -9.3125 8.3125 C-9.6425 9.3025 -9.9725 10.2925 -10.3125 11.3125 C-6.6825 11.6425 -3.0525 11.9725 0.6875 12.3125 C-1.3125 17.3125 -1.3125 17.3125 -3.0625 18.625 C-6.04236902 19.53551553 -8.20742688 19.69271303 -11.3125 19.3125 C-14.01240662 17.51256226 -15.8543865 16.228727 -17.3125 13.3125 C-17.99450373 6.37879537 -17.99450373 6.37879537 -15.55859375 2.5703125 C-10.58801732 -0.88695967 -5.89592225 -0.22398302 0 0 Z " fill="#F9F9F9" transform="translate(38.3125,34.6875)"/>
<path d="M0 0 C3.39762089 1.98194552 4.69546359 2.96926138 5.8125 6.75 C5.874375 7.4925 5.93625 8.235 6 9 C4.52093108 9.02689216 3.04172517 9.04634621 1.5625 9.0625 C0.32693359 9.07990234 0.32693359 9.07990234 -0.93359375 9.09765625 C-3 9 -3 9 -4 8 C-6.45809998 7.7499227 -6.45809998 7.7499227 -9 8 C-9.66 8.66 -10.32 9.32 -11 10 C-10.90304884 14.34194936 -10.90304884 14.34194936 -9 18 C-7.00041636 18.04080783 -4.99954746 18.04254356 -3 18 C-4.98 17.34 -6.96 16.68 -9 16 C-9 13.69 -9 11.38 -9 9 C-8.34 8.67 -7.68 8.34 -7 8 C-7 8.66 -7 9.32 -7 10 C-2.38 10 2.24 10 7 10 C6.63482467 19.12938331 6.63482467 19.12938331 3.8125 23 C0.12781973 25.62021708 -2.58041726 27.17129789 -7.20703125 26.84375 C-12.53625045 25.92461435 -15.57938953 24.38265716 -19 20 C-20.79484541 14.61546376 -20.83307553 9.79944314 -18.4375 4.625 C-13.15198867 -1.06708913 -7.24167609 -1.9934951 0 0 Z " fill="#85E4E6" transform="translate(351,31)"/>
<path d="M0 0 C2.40326683 2.78024987 4.22844227 5.78783488 6 9 C6.12375 7.72125 6.2475 6.4425 6.375 5.125 C6.75 1.25 6.75 1.25 9 -1 C10.98 -1 12.96 -1 15 -1 C15 7.91 15 16.82 15 26 C12.36 26 9.72 26 7 26 C4.6875 23.59375 4.6875 23.59375 3 20.5 C2.4225 19.4790625 1.845 18.458125 1.25 17.40625 C0.8375 16.6121875 0.425 15.818125 0 15 C-0.33 18.63 -0.66 22.26 -1 26 C-3.64 26 -6.28 26 -9 26 C-9 17.42 -9 8.84 -9 0 C-5.60307759 -1.69846121 -3.5927587 -1.07782761 0 0 Z " fill="#E6F4F4" transform="translate(314,31)"/>
<path d="M0 0 C3.2109375 0.40625 3.2109375 0.40625 5.546875 2.8125 C6.21976562 3.8334375 6.89265625 4.854375 7.5859375 5.90625 C8.27429688 6.9271875 8.96265625 7.948125 9.671875 9 C10.17976563 9.7940625 10.68765625 10.588125 11.2109375 11.40625 C11.5409375 8.10625 11.8709375 4.80625 12.2109375 1.40625 C14.5370232 1.02561779 16.87149014 0.69355055 19.2109375 0.40625 C20.2109375 1.40625 20.2109375 1.40625 20.32446289 3.90649414 C20.31922607 4.99051514 20.31398926 6.07453613 20.30859375 7.19140625 C20.30537109 8.36123047 20.30214844 9.53105469 20.29882812 10.73632812 C20.29044922 11.96802734 20.28207031 13.19972656 20.2734375 14.46875 C20.26892578 15.70431641 20.26441406 16.93988281 20.25976562 18.21289062 C20.24793358 21.27739117 20.23144923 24.34179721 20.2109375 27.40625 C17.35471257 27.64426874 15.01070128 27.83615615 12.2109375 27.40625 C9.8984375 25.21875 9.8984375 25.21875 8.2109375 22.40625 C7.6334375 21.478125 7.0559375 20.55 6.4609375 19.59375 C5.8421875 18.5109375 5.8421875 18.5109375 5.2109375 17.40625 C4.8809375 20.70625 4.5509375 24.00625 4.2109375 27.40625 C1.5709375 27.40625 -1.0690625 27.40625 -3.7890625 27.40625 C-3.81792787 23.09376391 -3.83581505 18.78130238 -3.8515625 14.46875 C-3.85994141 13.23705078 -3.86832031 12.00535156 -3.87695312 10.73632812 C-3.88017578 9.56650391 -3.88339844 8.39667969 -3.88671875 7.19140625 C-3.89195557 6.10738525 -3.89719238 5.02336426 -3.90258789 3.90649414 C-3.74206767 0.37125197 -3.52803515 0.51388747 0 0 Z " fill="#C4EFF0" transform="translate(271.7890625,29.59375)"/>
<path d="M0 0 C4.3841011 2.2384923 6.49732254 4.52712387 8.09375 9.31640625 C8.65513108 14.55596304 7.95007372 17.88417978 5.09375 22.31640625 C1.82800984 25.76876013 -1.07201549 27.04432396 -5.8515625 27.4140625 C-10.54397815 27.19103894 -13.85538186 25.25665669 -17.28125 22.19140625 C-19.49775027 18.26990577 -20.10450533 14.80490688 -19.90625 10.31640625 C-18.29569896 5.57422818 -16.03169386 3.10108085 -11.90625 0.31640625 C-7.82470111 -1.04411005 -4.14036951 -1.48476366 0 0 Z M-10.90625 9.44140625 C-12.18417963 13.11545393 -11.44813454 14.82687807 -9.90625 18.31640625 C-7.59625 18.64640625 -5.28625 18.97640625 -2.90625 19.31640625 C-0.93086472 17.09409781 0.03331032 15.72941073 0.46875 12.75390625 C0.25644892 10.31422517 0.25644892 10.31422517 -1.03125 8.50390625 C-4.76238023 6.1408571 -7.87735217 6.22320231 -10.90625 9.44140625 Z " fill="#FBFBFB" transform="translate(157.90625,31.68359375)"/>
<path d="M0 0 C3.4812511 2.32083406 4.99212405 4.09421919 6.8125 7.875 C7.63329525 12.47312851 7.30973859 16.53244004 5.25 20.75 C2.30770909 24.52216784 0.4223323 25.64571139 -4.1875 26.875 C-9.84984986 27.12690338 -13.79724224 25.53354813 -18.1875 21.875 C-20.94575134 17.44479494 -20.82721353 12.93673332 -20.1875 7.875 C-18.37516463 4.04121364 -16.88723473 2.34148982 -13.375 0 C-8.48257542 -1.72673809 -4.89242458 -1.72673809 0 0 Z M-12.1875 8.875 C-12.66649838 13.55816534 -12.66649838 13.55816534 -11 17.8125 C-8.52700907 19.26218434 -7.00865488 19.29817323 -4.1875 18.875 C-2.25095052 17.85529682 -2.25095052 17.85529682 -1.1875 15.875 C-0.76271414 11.79705575 -0.87467413 10.34423881 -3.1875 6.875 C-8.21768857 6.24654252 -8.21768857 6.24654252 -12.1875 8.875 Z " fill="#FCFCFC" transform="translate(79.1875,32.125)"/>
<path d="M0 0 C3.12986996 3.1633445 4.21915249 6.67875379 4.4375 11.0625 C3.97995547 15.18040081 3.30918345 17.57603834 1 21 C-3.23313794 24.34860166 -7.13503808 24.36654311 -12.3125 24.1875 C-14.849375 24.125625 -17.38625 24.06375 -20 24 C-20 15.42 -20 6.84 -20 -2 C-12.99112381 -3.75221905 -6.41678554 -3.49330796 0 0 Z M-12 5 C-12 8.96 -12 12.92 -12 17 C-7.19716971 17.56784877 -7.19716971 17.56784877 -5.1875 15.3125 C-3.78007732 12.57172952 -3.53226711 11.04026376 -4 8 C-5.08333333 6.08333333 -5.08333333 6.08333333 -7 5 C-8.65 5 -10.3 5 -12 5 Z " fill="#FBFBFB" transform="translate(213,34)"/>
<path d="M0 0 C2.40367591 2.77925027 2.75310468 4.69136858 3 8.3125 C-3.0546875 8.5078125 -3.0546875 8.5078125 -5 8.3125 C-5.66 7.6525 -6.32 6.9925 -7 6.3125 C-9.5 5.89583333 -9.5 5.89583333 -12 6.3125 C-14.35014158 9.150078 -14.35014158 9.150078 -13.6875 12.4375 C-13.29355679 15.19336422 -13.29355679 15.19336422 -12 16.3125 C-9.54190002 16.5625773 -9.54190002 16.5625773 -7 16.3125 C-6.34 15.6525 -5.68 14.9925 -5 14.3125 C-2.31160615 14.04258094 0.29141936 14.22512643 3 14.3125 C2.70992229 17.69673992 2.0005775 19.31173 -0.0625 22.0625 C-3.74016336 24.87943364 -6.40713042 25.6093775 -11 25.3125 C-16.20973745 23.74957876 -19.03419428 21.87527803 -22 17.3125 C-23.62088064 12.44985809 -23.73263309 8.19199923 -21.4375 3.5625 C-16.50542987 -4.0942802 -7.28069668 -4.09539188 0 0 Z " fill="#FBFBFB" transform="translate(117,33.6875)"/>
<path d="M0 0 C0.06058594 1.20398437 0.12117187 2.40796875 0.18359375 3.6484375 C0.26799732 5.22397077 0.35264541 6.79949096 0.4375 8.375 C0.47681641 9.1690625 0.51613281 9.963125 0.55664062 10.78125 C0.68893404 15.02601221 0.68893404 15.02601221 2 19 C3.32 19 4.64 19 6 19 C6.495 10.09 6.495 10.09 7 1 C9.64 1 12.28 1 15 1 C15.14622024 4.20784721 15.23436651 7.41482961 15.3125 10.625 C15.35439453 11.52863281 15.39628906 12.43226562 15.43945312 13.36328125 C15.52010911 17.78322925 15.52058573 21.00980846 12.72265625 24.58203125 C9.53007158 27.41733959 8.1497808 27.95129045 4.0625 28.17578125 C0.50739899 27.87278969 -1.88038429 26.7469848 -5 25 C-8.40845782 19.88731328 -8.11919012 14.63415271 -8.0625 8.625 C-8.05347656 7.37976562 -8.04445312 6.13453125 -8.03515625 4.8515625 C-8.02355469 3.91054688 -8.01195312 2.96953125 -8 2 C-5.09399739 0.74335022 -3.20395416 0 0 0 Z " fill="#FBFBFB" transform="translate(175,31)"/>
<path d="M0 0 C0 0.99 0 1.98 0 3 C-1.0621875 3.02578125 -2.124375 3.0515625 -3.21875 3.078125 C-14.23765222 3.34349979 -14.23765222 3.34349979 -24 8 C-27.06557709 12.31096778 -27.4655502 15.78583772 -27 21 C-26.08885464 24.32186171 -26.08885464 24.32186171 -25 27 C-27.64 27 -30.28 27 -33 27 C-36.00482942 22.01579882 -35.39236859 16.63652577 -35 11 C-34 7.4375 -34 7.4375 -33 5 C-33 4.01 -33 3.02 -33 2 C-32.34 2 -31.68 2 -31 2 C-30.34 0.35 -29.68 -1.3 -29 -3 C-28.67 -2.34 -28.34 -1.68 -28 -1 C-27.39414062 -1.2165625 -26.78828125 -1.433125 -26.1640625 -1.65625 C-16.26869433 -4.94455696 -9.10167634 -5.39358598 0 0 Z " fill="#B1E5E6" transform="translate(44,27)"/>
<path d="M0 0 C2.31 0 4.62 0 7 0 C7 7.92 7 15.84 7 24 C5.02 24 3.04 24 1 24 C0.67 20.37 0.34 16.74 0 13 C-0.33 14.65 -0.66 16.3 -1 18 C-1.66 18 -2.32 18 -3 18 C-3 18.66 -3 19.32 -3 20 C-3.66 20 -4.32 20 -5 20 C-5 21.32 -5 22.64 -5 24 C-6.65 24 -8.3 24 -10 24 C-10.66 20.37 -11.32 16.74 -12 13 C-9 13 -9 13 -7.3125 14.5 C-6.879375 14.995 -6.44625 15.49 -6 16 C-5.87625 15.28328125 -5.7525 14.5665625 -5.625 13.828125 C-4.99457989 10.97547399 -4.10066194 8.45309623 -3 5.75 C-2.4740625 4.44289063 -2.4740625 4.44289063 -1.9375 3.109375 C-1 1 -1 1 0 0 Z " fill="#65DFE5" transform="translate(247,32)"/>
<path d="M0 0 C0 6.6 0 13.2 0 20 C2.64 20 5.28 20 8 20 C8 21.98 8 23.96 8 26 C5.52076199 26.02685095 3.0418116 26.04676547 0.5625 26.0625 C-0.14455078 26.07087891 -0.85160156 26.07925781 -1.58007812 26.08789062 C-3.38693559 26.09653588 -5.19387603 26.05220011 -7 26 C-8 25 -8 25 -8.11352539 22.59155273 C-8.10828857 21.54942627 -8.10305176 20.5072998 -8.09765625 19.43359375 C-8.09443359 18.30888672 -8.09121094 17.18417969 -8.08789062 16.02539062 C-8.07951172 14.84138672 -8.07113281 13.65738281 -8.0625 12.4375 C-8.05798828 11.24962891 -8.05347656 10.06175781 -8.04882812 8.83789062 C-8.03699675 5.89187774 -8.02051287 2.94596319 -8 0 C-6 -1 -6 -1 0 0 Z " fill="#FAFAFA" transform="translate(130,32)"/>
<path d="M0 0 C0 8.91 0 17.82 0 27 C-2.64 27 -5.28 27 -8 27 C-8 18.42 -8 9.84 -8 1 C-6 0 -6 0 0 0 Z " fill="#97E8EB" transform="translate(265,30)"/>
<path d="M0 0 C1 1 1 1 1.11352539 3.50024414 C1.10828857 4.58426514 1.10305176 5.66828613 1.09765625 6.78515625 C1.09443359 7.95498047 1.09121094 9.12480469 1.08789062 10.33007812 C1.07951172 11.56177734 1.07113281 12.79347656 1.0625 14.0625 C1.05798828 15.29806641 1.05347656 16.53363281 1.04882812 17.80664062 C1.03699608 20.87114117 1.02051173 23.93554721 1 27 C-1.64 27 -4.28 27 -7 27 C-7 18.42 -7 9.84 -7 1 C-4.51588385 -0.24205807 -2.74800896 -0.14092354 0 0 Z " fill="#98EAEC" transform="translate(302,30)"/>
<path d="M0 0 C1.98 0 3.96 0 6 0 C6 7.92 6 15.84 6 24 C3.69 24 1.38 24 -1 24 C-3 21.8125 -3 21.8125 -4 19 C-3.6875 16.1875 -3.6875 16.1875 -3 14 C-2.01 14 -1.02 14 0 14 C0 9.38 0 4.76 0 0 Z " fill="#67E0E4" transform="translate(323,32)"/>
<path d="M0 0 C2.31 0 4.62 0 7 0 C7 1.32 7 2.64 7 4 C7.66 4.33 8.32 4.66 9 5 C9 5.66 9 6.32 9 7 C9.33 7.99 9.66 8.98 10 10 C9.34 10.66 8.68 11.32 8 12 C7.67 11.67 7.34 11.34 7 11 C6.67 15.29 6.34 19.58 6 24 C4.02 24 2.04 24 0 24 C0 16.08 0 8.16 0 0 Z " fill="#62E1E5" transform="translate(269,32)"/>
<path d="M0 0 C3.39762089 1.98194552 4.69546359 2.96926138 5.8125 6.75 C5.874375 7.4925 5.93625 8.235 6 9 C4.52093108 9.02689216 3.04172517 9.04634621 1.5625 9.0625 C0.32693359 9.07990234 0.32693359 9.07990234 -0.93359375 9.09765625 C-3 9 -3 9 -4 8 C-7.72224599 7.70613847 -8.77786243 7.85190829 -12 10 C-11.5 8.125 -11.5 8.125 -10 6 C-7.34822355 5.01505446 -4.79452693 4.54087618 -2 4 C-2 3.01 -2 2.02 -2 1 C-9.53918478 1.40173377 -9.53918478 1.40173377 -16 5 C-18.31286009 8.67955015 -18.20310462 11.90882719 -17.55078125 16.06640625 C-16.71149195 19.01284741 -15.13891829 20.86108171 -13 23 C-9.55389094 24.72305453 -5.77537825 24.379435 -2 24 C1.45346148 22.65253476 1.45346148 22.65253476 4 21 C3 24 3 24 0 26 C-5.27373456 27.21701567 -8.97544725 27.04704001 -14 25 C-17.62225279 21.92895959 -19.67803836 19.77098129 -20.23828125 14.94921875 C-20.41824677 9.4650062 -19.89346931 6.19296695 -16 2 C-10.59877112 -1.28309991 -5.98265101 -1.64690955 0 0 Z " fill="#CFF0F1" transform="translate(351,31)"/>
<path d="M0 0 C2.31 0 4.62 0 7 0 C9.125 6.625 9.125 6.625 8 10 C7.01 10 6.02 10 5 10 C5 14.62 5 19.24 5 24 C3.35 24 1.7 24 0 24 C0 16.08 0 8.16 0 0 Z " fill="#5EDFE7" transform="translate(226,32)"/>
<path d="M0 0 C1.65 0 3.3 0 5 0 C5.33 2.31 5.66 4.62 6 7 C6.66 7 7.32 7 8 7 C11 11.38461538 11 11.38461538 11 14 C8 13 8 13 5 10 C5 14.62 5 19.24 5 24 C3.35 24 1.7 24 0 24 C0 16.08 0 8.16 0 0 Z " fill="#60E0E5" transform="translate(307,32)"/>
<path d="M0 0 C0.33 0.99 0.66 1.98 1 3 C0.06027344 3.27263672 0.06027344 3.27263672 -0.8984375 3.55078125 C-1.71570313 3.80214844 -2.53296875 4.05351563 -3.375 4.3125 C-4.59316406 4.67794922 -4.59316406 4.67794922 -5.8359375 5.05078125 C-8.33184629 5.91368185 -8.33184629 5.91368185 -10 9 C-10.39387788 11.32387947 -10.73486085 13.65793749 -11 16 C-11.66 16 -12.32 16 -13 16 C-13.33 16.66 -13.66 17.32 -14 18 C-14.66 17.67 -15.32 17.34 -16 17 C-16.98631956 12.52362659 -17.35489565 10.04497054 -15.875 5.6875 C-11.58432507 -0.4624674 -6.96074093 -0.40945535 0 0 Z " fill="#68DEE3" transform="translate(349,32)"/>
<path d="M0 0 C0.33 0.66 0.66 1.32 1 2 C1.99 2.33 2.98 2.66 4 3 C3.360625 4.093125 2.72125 5.18625 2.0625 6.3125 C-0.51331151 11.38220676 -0.7937554 16.39014692 -1 22 C-2.65 21.67 -4.3 21.34 -6 21 C-7.83882439 15.25367378 -7.53931055 9.45951767 -5 4 C-2.9375 2.75 -2.9375 2.75 -1 2 C-0.67 1.34 -0.34 0.68 0 0 Z " fill="#7EDCDE" transform="translate(17,30)"/>
<path d="M0 0 C8 9.42857143 8 9.42857143 8 15 C8.99 15.33 9.98 15.66 11 16 C10.67 17.32 10.34 18.64 10 20 C11.32 19.67 12.64 19.34 14 19 C14 20.65 14 22.3 14 24 C11.73828125 24.2890625 11.73828125 24.2890625 9 24 C6.98046875 22.0234375 6.98046875 22.0234375 5.1875 19.375 C4.58292969 18.51648438 3.97835938 17.65796875 3.35546875 16.7734375 C1.80872863 13.60863783 1.73990561 11.47812492 2 8 C1.34 7.67 0.68 7.34 0 7 C0 4.66666667 0 2.33333333 0 0 Z " fill="#61E1E5" transform="translate(276,32)"/>
<path d="M0 0 C0.94875 0.04125 1.8975 0.0825 2.875 0.125 C2.875 0.785 2.875 1.445 2.875 2.125 C0.895 2.125 -1.085 2.125 -3.125 2.125 C-3.125 6.745 -3.125 11.365 -3.125 16.125 C-4.115 16.455 -5.105 16.785 -6.125 17.125 C-6.785 17.785 -7.445 18.445 -8.125 19.125 C-9.25380057 15.81385166 -10.33802675 12.53521743 -11.125 9.125 C-11.785 9.125 -12.445 9.125 -13.125 9.125 C-13.455 6.815 -13.785 4.505 -14.125 2.125 C-9.91873966 3.62723584 -8.38599979 6.41050034 -6.125 10.125 C-6.00125 8.84625 -5.8775 7.5675 -5.75 6.25 C-5.33334973 1.94461392 -4.72742174 0.18909687 0 0 Z " fill="#7AE2E7" transform="translate(326.125,29.875)"/>
<path d="M0 0 C0.33 0.66 0.66 1.32 1 2 C2.65 1.67 4.3 1.34 6 1 C6 1.66 6 2.32 6 3 C5.236875 3.45375 4.47375 3.9075 3.6875 4.375 C-1.04763523 7.23810502 -2.6516093 10.71015958 -4 16 C-4.19983055 19.86339072 -4.18403195 23.29990017 -3 27 C-1.68 27.33 -0.36 27.66 1 28 C1.33 26.68 1.66 25.36 2 24 C2.66 25.98 3.32 27.96 4 30 C1.36 30 -1.28 30 -4 30 C-7.00482942 25.01579882 -6.39236859 19.63652577 -6 14 C-5 10.4375 -5 10.4375 -4 8 C-4 7.01 -4 6.02 -4 5 C-3.34 5 -2.68 5 -2 5 C-1.34 3.35 -0.68 1.7 0 0 Z " fill="#F9FCFC" transform="translate(15,24)"/>
<path d="M0 0 C10.30732879 0.2885003 10.30732879 0.2885003 15.1953125 2.4609375 C15.1953125 3.1209375 15.1953125 3.7809375 15.1953125 4.4609375 C7.9353125 4.4609375 0.6753125 4.4609375 -6.8046875 4.4609375 C-2.8046875 0.4609375 -2.8046875 0.4609375 0 0 Z " fill="#70DBDE" transform="translate(27.8046875,24.5390625)"/>
<path d="M0 0 C0.33 0.66 0.66 1.32 1 2 C5.62 2 10.24 2 15 2 C15 3.65 15 5.3 15 7 C14.67 5.68 14.34 4.36 14 3 C9.71 3 5.42 3 1 3 C1 4.32 1 5.64 1 7 C3.31 7 5.62 7 8 7 C7.67 8.32 7.34 9.64 7 11 C0.125 9.125 0.125 9.125 -1 8 C-1.125 4.5 -1.125 4.5 -1 1 C-0.67 0.67 -0.34 0.34 0 0 Z " fill="#FEFEFE" transform="translate(343,39)"/>
<path d="M0 0 C3.96 0 7.92 0 12 0 C11.67 2.64 11.34 5.28 11 8 C9.68 7.34 8.36 6.68 7 6 C7 5.01 7 4.02 7 3 C4.69 3 2.38 3 0 3 C0 2.01 0 1.02 0 0 Z " fill="#5FDEE5" transform="translate(344,43)"/>
<path d="M0 0 C3.21880117 3.7935871 5.6163187 7.65829477 8 12 C7.01 12.495 7.01 12.495 6 13 C4.86649466 15.01669827 4.86649466 15.01669827 4 17 C1.70986347 13.5647952 1.82157027 12.014669 2 8 C1.34 7.67 0.68 7.34 0 7 C0 4.66666667 0 2.33333333 0 0 Z " fill="#7DE4E3" transform="translate(276,32)"/>
<path d="M0 0 C1.32 0 2.64 0 4 0 C4 2.64 4 5.28 4 8 C3.01 8.495 3.01 8.495 2 9 C2.33 10.65 2.66 12.3 3 14 C2.01 14 1.02 14 0 14 C0 9.38 0 4.76 0 0 Z " fill="#5EE1E5" transform="translate(286,32)"/>
<path d="M0 0 C1.50433594 0.29197266 1.50433594 0.29197266 3.0390625 0.58984375 C4.19535156 0.82380859 4.19535156 0.82380859 5.375 1.0625 C3.7405205 3.02696905 2.91070606 3.98567791 0.33203125 4.35546875 C-1.65364583 4.2578125 -3.63932292 4.16015625 -5.625 4.0625 C-6.285 2.7425 -6.945 1.4225 -7.625 0.0625 C-4.81015955 -1.34492022 -3.05563887 -0.60402164 0 0 Z " fill="#60E1E5" transform="translate(343.625,50.9375)"/>
<path d="M0 0 C0.94875 0.04125 1.8975 0.0825 2.875 0.125 C2.875 0.785 2.875 1.445 2.875 2.125 C0.895 2.125 -1.085 2.125 -3.125 2.125 C-3.125 6.745 -3.125 11.365 -3.125 16.125 C-4.115 15.465 -5.105 14.805 -6.125 14.125 C-6.01117347 12.16598546 -5.88358875 10.2077662 -5.75 8.25 C-5.68039062 7.15945312 -5.61078125 6.06890625 -5.5390625 4.9453125 C-4.94126358 0.87351233 -4.11541949 0.16461678 0 0 Z " fill="#F1FAFB" transform="translate(326.125,29.875)"/>
<path d="M0 0 C0.33 0 0.66 0 1 0 C0.67 3.96 0.34 7.92 0 12 C0.66 12 1.32 12 2 12 C2 13.32 2 14.64 2 16 C0.68 16 -0.64 16 -2 16 C-2.05402274 13.89611431 -2.09280256 11.79183286 -2.125 9.6875 C-2.14820313 8.51574219 -2.17140625 7.34398437 -2.1953125 6.13671875 C-2 3 -2 3 0 0 Z " fill="#5EE0E3" transform="translate(14,36)"/>
<path d="M0 0 C0.33 0 0.66 0 1 0 C1.185625 1.11375 1.37125 2.2275 1.5625 3.375 C2.036875 4.57125 2.51125 5.7675 3 7 C6.51400668 8.54086322 6.51400668 8.54086322 10 9 C10 9.33 10 9.66 10 10 C9.31292969 9.98839844 8.62585938 9.97679687 7.91796875 9.96484375 C7.01691406 9.95582031 6.11585938 9.94679688 5.1875 9.9375 C4.29417969 9.92589844 3.40085937 9.91429687 2.48046875 9.90234375 C-0.13413791 9.88990033 -0.13413791 9.88990033 -3 11 C-3.33 9.68 -3.66 8.36 -4 7 C-2.68 7 -1.36 7 0 7 C0 4.69 0 2.38 0 0 Z " fill="#A4E9EB" transform="translate(338,41)"/>
<path d="M0 0 C0.2475 0.639375 0.495 1.27875 0.75 1.9375 C1.81562433 4.18741541 1.81562433 4.18741541 4.125 4.75 C4.74375 4.8325 5.3625 4.915 6 5 C6.33 3.68 6.66 2.36 7 1 C7.66 2.98 8.32 4.96 9 7 C6.36 7 3.72 7 1 7 C-0.0625 4.625 -0.0625 4.625 -1 2 C-0.67 1.34 -0.34 0.68 0 0 Z " fill="#E1F1F1" transform="translate(10,47)"/>
<path d="M0 0 C0.33 0 0.66 0 1 0 C1 5.94 1 11.88 1 18 C-0.98 18 -2.96 18 -5 18 C-4.35546875 17.48953125 -3.7109375 16.9790625 -3.046875 16.453125 C-0.32143762 13.18676112 -0.40576117 10.95555161 -0.25 6.75 C-0.19328125 5.48671875 -0.1365625 4.2234375 -0.078125 2.921875 C-0.05234375 1.95765625 -0.0265625 0.9934375 0 0 Z " fill="#75E9F0" transform="translate(301,38)"/>
<path d="M0 0 C0.99 0 1.98 0 3 0 C3 0.66 3 1.32 3 2 C3.66 2 4.32 2 5 2 C5 3.32 5 4.64 5 6 C3.125 5.75 3.125 5.75 1 5 C-0.25 2.9375 -0.25 2.9375 -1 1 C-0.67 0.67 -0.34 0.34 0 0 Z " fill="#6AE3E8" transform="translate(320,49)"/>
<path d="M0 0 C2.99324263 1.0975223 3.84610901 1.67682892 5.25 4.625 C5.4975 5.40875 5.745 6.1925 6 7 C5.01 7.33 4.02 7.66 3 8 C2.34 7.67 1.68 7.34 1 7 C0.59270772 4.67843403 0.25561323 2.3431213 0 0 Z " fill="#92E7EA" transform="translate(312,32)"/>
<path d="M0 0 C0.33 0 0.66 0 1 0 C1 3.96 1 7.92 1 12 C-0.65 11.67 -2.3 11.34 -4 11 C-4 10.34 -4 9.68 -4 9 C-2.68 9 -1.36 9 0 9 C0 6.03 0 3.06 0 0 Z " fill="#73E7EE" transform="translate(253,44)"/>
<path d="M0 0 C0.33 0.99 0.66 1.98 1 3 C3.31 3 5.62 3 8 3 C7.67 4.32 7.34 5.64 7 7 C4.69 6.34 2.38 5.68 0 5 C0 3.35 0 1.7 0 0 Z " fill="#E7F5F6" transform="translate(343,43)"/>
<path d="M0 0 C0 1.65 0 3.3 0 5 C-1.65 5 -3.3 5 -5 5 C-5.33 4.34 -5.66 3.68 -6 3 C-5.34 3 -4.68 3 -4 3 C-4 2.34 -4 1.68 -4 1 C-2 0 -2 0 0 0 Z " fill="#6BE5EA" transform="translate(290,51)"/>
<path d="M0 0 C1.36125 0.12375 1.36125 0.12375 2.75 0.25 C0.77 1.24 0.77 1.24 -1.25 2.25 C-0.92 2.91 -0.59 3.57 -0.25 4.25 C-2.56 4.25 -4.87 4.25 -7.25 4.25 C-4.83923194 1.28290085 -3.90322061 0.30024774 0 0 Z " fill="#5EE0E5" transform="translate(28.25,24.75)"/>
<path d="M0 0 C0.33 0 0.66 0 1 0 C1 3.3 1 6.6 1 10 C-0.65 10 -2.3 10 -4 10 C-4 9.01 -4 8.02 -4 7 C-3.01 7.33 -2.02 7.66 -1 8 C-0.67 5.36 -0.34 2.72 0 0 Z " fill="#6CDCE2" transform="translate(230,46)"/>
<path d="M0 0 C0.99 0.33 1.98 0.66 3 1 C3 2.98 3 4.96 3 7 C2.34 7 1.68 7 1 7 C0.67 7.66 0.34 8.32 0 9 C0 6.03 0 3.06 0 0 Z " fill="#5CE1E9" transform="translate(335,41)"/>
<path d="M0 0 C0.33 0.66 0.66 1.32 1 2 C1.99 2.33 2.98 2.66 4 3 C3.03114628 4.68496298 2.03013277 6.35178756 1 8 C0.67 8 0.34 8 0 8 C-1.125 2.25 -1.125 2.25 0 0 Z " fill="#8FE1E4" transform="translate(17,30)"/>
<path d="M0 0 C4 4.625 4 4.625 4 8 C2.68 7.67 1.36 7.34 0 7 C0 4.66666667 0 2.33333333 0 0 Z " fill="#A9EAEC" transform="translate(276,32)"/>
<path d="M0 0 C0.99 0 1.98 0 3 0 C3.33 0.99 3.66 1.98 4 3 C3 4 3 4 0.4375 4.0625 C-0.7690625 4.0315625 -0.7690625 4.0315625 -2 4 C-1 1 -1 1 0 0 Z " fill="#5AE1E4" transform="translate(346,32)"/>
</svg>
